PathFileType	4	(X/Y/Z)	/Users/itak/Documents/Research/Walk-IL/dataset/trc/00421_00012.trc
DataRate	CameraRate	NumFrames	NumMarkers	Units	OrigDataRate	OrigDataStartFrame	OrigNumFrames
100.000000	100.000000	4	53	mm	100.000000	282	564
Frame#	Time	RPSI			LPSI			L3			STRN			T10			C7			CLAV			RBAK			LBAK			LSHO			LUPA			LAEL			LAOL			LWTS			LWPS			LFRA			LIFD			LHPS			LHTS			RSHO			RUPA			RAEL			RAOL			RWTS			RWPS			RFRA			RIFD			RHPS			RBHD			LFHD			RFHD			LBHD			LHIP			RHIP			RASI			LASI			LKNE			LTHI			LANK			LTIP			LTOE			LMT1			LMT5			LHEE			RKNE			RTHI			RANK			RTIP			RTOE			RMT1			RMT5			RHEE			RHTS			
		X1	Y1	Z1	X2	Y2	Z2	X3	Y3	Z3	X4	Y4	Z4	X5	Y5	Z5	X6	Y6	Z6	X7	Y7	Z7	X8	Y8	Z8	X9	Y9	Z9	X10	Y10	Z10	X11	Y11	Z11	X12	Y12	Z12	X13	Y13	Z13	X14	Y14	Z14	X15	Y15	Z15	X16	Y16	Z16	X17	Y17	Z17	X18	Y18	Z18	X19	Y19	Z19	X20	Y20	Z20	X21	Y21	Z21	X22	Y22	Z22	X23	Y23	Z23	X24	Y24	Z24	X25	Y25	Z25	X26	Y26	Z26	X27	Y27	Z27	X28	Y28	Z28	X29	Y29	Z29	X30	Y30	Z30	X31	Y31	Z31	X32	Y32	Z32	X33	Y33	Z33	X34	Y34	Z34	X35	Y35	Z35	X36	Y36	Z36	X37	Y37	Z37	X38	Y38	Z38	X39	Y39	Z39	X40	Y40	Z40	X41	Y41	Z41	X42	Y42	Z42	X43	Y43	Z43	X44	Y44	Z44	X45	Y45	Z45	X46	Y46	Z46	X47	Y47	Z47	X48	Y48	Z48	X49	Y49	Z49	X50	Y50	Z50	X51	Y51	Z51	X52	Y52	Z52	X53	Y53	Z53	

283	2.82	-649.7440185546875	937.8727416992188	-519.1044311523438	-599.5869140625	930.3906860351562	-643.2572631835938	-631.2028198242188	1013.184997558594	-574.21728515625	-422.8381958007812	1170.690795898438	-471.3980102539062	-645.0341796875	1118.186157226562	-583.0486450195312	-605.3223266601562	1367.252319335938	-575.9735107421875	-470.8521118164062	1288.640747070312	-497.1712951660156	-672.3712158203125	1221.47509765625	-532.8870239257812	-568.6558227539062	1330.306762695312	-672.1844482421875	-470.0195007324219	1343.68701171875	-677.72412109375	-470.9339599609375	1231.62158203125	-756.9244384765625	-469.7486572265625	1035.82958984375	-787.9473876953125	-546.1702270507812	1019.986328125	-752.6248168945312	-449.5946960449219	800.5111694335938	-737.2550048828125	-464.3624267578125	806.6392822265625	-819.5007934570312	-468.261962890625	931.1436767578125	-803.7198486328125	-496.2303466796875	629.7015991210938	-778.8010864257812	-477.1771850585938	721.5858154296875	-822.8748168945312	-450.5103454589844	703.585205078125	-766.2615966796875	-627.1981201171875	1348.74853515625	-409.17626953125	-667.6951904296875	1284.761962890625	-361.8543395996094	-668.9563598632812	1027.753662109375	-295.5069885253906	-643.9208374023438	1005.882690429688	-386.5030517578125	-472.7583618164062	892.269775390625	-229.7691802978516	-525.3329467773438	866.486572265625	-184.8268432617188	-633.78125	977.6736450195312	-259.0470886230469	-398.68212890625	743.7989501953125	-180.4228210449219	-480.046630859375	792.6249389648438	-158.6244964599609	-628.6223754882812	1545.913208007812	-495.333984375	-436.4031372070312	1571.611328125	-532.7716064453125	-511.1008605957031	1570.37451171875	-435.9991455078125	-543.3914184570312	1542.9755859375	-631.7361450195312	-473.4760131835938	932.6888427734375	-706.8555908203125	-622.6339721679688	911.0186157226562	-379.9544372558594	-480.6790771484375	920.93505859375	-370.5741577148438	-390.0413513183594	939.35888671875	-617.6240844726562	-266.9530334472656	489.5072631835938	-585.9816284179688	-325.0163879394531	610.4617919921875	-629.0180053710938	-258.8890380859375	37.43930816650391	-634.0423583984375	-249.243408203125	254.7022399902344	-614.5601196289062	-150.9597473144531	52.92457580566406	-440.4834899902344	-228.8851013183594	44.97082901000977	-472.4182434082031	-160.6588439941406	39.87335586547852	-552.2855224609375	-325.1836242675781	34.80556488037109	-618.8499145507812	-604.6359252929688	429.7823181152344	-465.712158203125	-554.6061401367188	676.5374145507812	-384.4069519042969	-849.19091796875	97.59673309326172	-584.6932373046875	-649.9119873046875	312.1792602539062	-503.7077026367188	-690.6315307617188	36.70087432861328	-637.17333984375	-751.2076416015625	53.213134765625	-669.345458984375	-778.2081298828125	51.93695449829102	-573.6212158203125	-909.7135620117188	129.1922454833984	-646.2260131835938	-420.3107299804688	813.6509399414062	-178.0129241943359	
284	2.83	-639.0145874023438	938.8182373046875	-517.0119018554688	-587.310302734375	932.09130859375	-640.5457763671875	-618.855712890625	1014.502075195312	-571.662109375	-413.0755920410156	1172.60791015625	-467.4586181640625	-633.87109375	1119.205688476562	-581.2161865234375	-595.0798950195312	1368.402954101562	-574.2310791015625	-461.1305541992188	1290.45849609375	-493.8641052246094	-661.9484252929688	1222.504272460938	-531.7425537109375	-556.9597778320312	1331.570922851562	-669.9537963867188	-458.5390930175781	1345.455932617188	-674.4091796875	-458.0676879882812	1233.203125	-753.3457641601562	-455.2765197753906	1037.190795898438	-783.425048828125	-532.2028198242188	1021.121032714844	-748.8031005859375	-433.4067993164062	802.3682250976562	-731.1647338867188	-447.66796875	807.8374633789062	-813.51416015625	-452.824462890625	932.4348754882812	-798.544677734375	-476.8289794921875	630.7042236328125	-772.4464111328125	-459.0555114746094	722.7178344726562	-816.6494140625	-432.5501403808594	705.4337158203125	-759.7745361328125	-618.5618286132812	1350.087158203125	-407.6844482421875	-659.7048950195312	1286.104370117188	-360.93212890625	-662.4338989257812	1028.812133789062	-296.4181518554688	-635.5292358398438	1007.57958984375	-387.0414428710938	-469.5759887695312	889.3272094726562	-228.2581329345703	-523.322509765625	864.160888671875	-184.5934600830078	-628.6368408203125	977.94482421875	-259.6476440429688	-399.5764770507812	738.8394775390625	-178.9269561767578	-480.3611145019531	789.2949829101562	-158.3556823730469	-619.4251098632812	1547.341796875	-493.6972351074219	-426.7004089355469	1573.023803710938	-528.2901611328125	-502.7889404296875	1571.504028320312	-432.7144775390625	-532.364013671875	1544.810180664062	-628.8802490234375	-460.3654174804688	934.486328125	-702.5397338867188	-613.4351806640625	911.7465209960938	-377.6006469726562	-471.6889343261719	922.343017578125	-367.1654968261719	-377.7890625	941.1309204101562	-612.8458862304688	-257.8433532714844	489.4559020996094	-581.2777099609375	-314.4054870605469	611.246337890625	-624.37451171875	-258.3894958496094	37.60039520263672	-634.0909423828125	-243.9367828369141	254.5190582275391	-612.078125	-150.1843414306641	49.731689453125	-439.8608703613281	-228.2815093994141	43.78664398193359	-472.1096801757812	-159.9934844970703	38.6827392578125	-552.2385864257812	-324.57763671875	35.41253662109375	-619.0205688476562	-589.1099243164062	429.9827270507812	-459.9441833496094	-542.8272094726562	677.2683715820312	-380.8841857910156	-843.1497192382812	104.646598815918	-583.4866943359375	-637.5471801757812	313.8335266113281	-497.8031921386719	-690.66650390625	36.63116836547852	-636.9713134765625	-747.4365844726562	55.78465270996094	-667.9481811523438	-775.907470703125	53.24537658691406	-572.5928955078125	-900.2200927734375	141.1025543212891	-645.2339477539062	-419.6725463867188	809.0828857421875	-176.2969207763672	
285	2.84	-628.5707397460938	939.6911010742188	-514.92041015625	-575.2523193359375	933.8731079101562	-637.7611083984375	-606.7296752929688	1016.099731445312	-569.10302734375	-403.4455261230469	1174.635009765625	-463.3058166503906	-622.5381469726562	1120.383178710938	-579.3046264648438	-584.72509765625	1369.723022460938	-572.457275390625	-451.5095520019531	1292.401000976562	-490.3898010253906	-651.5617065429688	1223.713745117188	-530.6517333984375	-545.1204223632812	1333.042358398438	-667.6557006835938	-446.8883666992188	1347.43798828125	-670.8628540039062	-444.8449096679688	1235.059692382812	-749.5721435546875	-440.4229736328125	1038.821899414062	-778.6915893554688	-517.8890380859375	1022.549499511719	-744.92626953125	-416.8065185546875	804.54736328125	-724.7462768554688	-430.5718078613281	809.2636108398438	-807.1875	-436.9891357421875	933.998779296875	-793.0929565429688	-457.0150451660156	632.0320434570312	-765.383056640625	-440.5567016601562	724.0552978515625	-809.9386596679688	-414.2089538574219	707.5819091796875	-752.8165893554688	-610.0333251953125	1351.602294921875	-406.2343139648438	-651.8394775390625	1287.661010742188	-360.0463256835938	-655.9906005859375	1030.104858398438	-297.4016418457031	-627.2155151367188	1009.524291992188	-387.5865478515625	-466.6856079101562	886.3970336914062	-226.9376220703125	-521.5927734375	861.9244384765625	-184.5954895019531	-623.6256713867188	978.440185546875	-260.3575744628906	-401.1019897460938	733.7435302734375	-177.9039611816406	-481.1488647460938	785.996337890625	-158.4526824951172	-610.2649536132812	1548.857177734375	-491.9690246582031	-417.0738830566406	1574.597045898438	-523.6982421875	-494.5625	1572.755615234375	-429.329345703125	-521.3607788085938	1546.74951171875	-625.90625	-447.29833984375	936.5371704101562	-698.03466796875	-604.6196899414062	912.43212890625	-375.2572631835938	-463.1178588867188	923.8760375976562	-363.7543029785156	-365.7490539550781	943.0560302734375	-607.9219970703125	-249.3805847167969	489.2066955566406	-577.4395141601562	-304.0095825195312	612.181396484375	-620.1956176757812	-257.9934692382812	37.61395263671875	-634.2525634765625	-239.2773132324219	254.2212524414062	-610.240966796875	-149.6424713134766	47.45644378662109	-439.5959167480469	-227.8324127197266	43.06571960449219	-471.9830017089844	-159.4349822998047	37.91860198974609	-552.3901977539062	-324.082275390625	35.81360244750977	-619.2711181640625	-573.0177001953125	430.1903381347656	-453.1684875488281	-531.0606079101562	678.0634765625	-376.9170837402344	-835.9259643554688	112.3424072265625	-582.0479125976562	-624.3524169921875	315.6485290527344	-491.0800170898438	-690.3519287109375	36.39436340332031	-636.4979858398438	-742.8294677734375	58.73833465576172	-666.2695922851562	-773.1774291992188	55.21145629882812	-571.4052734375	-888.9501953125	153.5801696777344	-644.0235595703125	-419.5180358886719	804.3861694335938	-174.9452667236328	
286	2.85	-618.4364013671875	940.4589233398438	-512.8944702148438	-563.4232177734375	935.7288818359375	-634.9595947265625	-594.9151611328125	1017.904052734375	-566.6082153320312	-393.99609375	1176.682006835938	-458.9203796386719	-610.99365234375	1121.65576171875	-577.3173217773438	-574.2672729492188	1371.161010742188	-570.63818359375	-442.0089416503906	1294.391357421875	-486.7138977050781	-641.2321166992188	1225.0419921875	-529.624267578125	-533.1554565429688	1334.665649414062	-665.2769775390625	-435.0676574707031	1349.552490234375	-667.0504150390625	-431.239501953125	1237.112060546875	-745.5673217773438	-425.1689147949219	1040.645385742188	-773.7364501953125	-503.2184448242188	1024.19384765625	-741.0258178710938	-399.8330688476562	806.9719848632812	-718.0125732421875	-413.1019897460938	810.8470458984375	-800.53173828125	-420.7502136230469	935.7598876953125	-787.3594970703125	-436.8715209960938	633.6262817382812	-757.63134765625	-421.7408752441406	725.5269775390625	-802.7537231445312	-395.5370483398438	709.9519653320312	-745.3970947265625	-601.6571655273438	1353.224609375	-404.8221435546875	-644.1365356445312	1289.350952148438	-359.2065734863281	-649.6520385742188	1031.55224609375	-298.4095764160156	-619.060791015625	1011.619079589844	-388.0994262695312	-464.0657043457031	883.4859619140625	-225.8099822998047	-520.1170654296875	859.7778930664062	-184.8121337890625	-618.7545776367188	979.09521484375	-261.1388549804688	-403.1557006835938	728.5765991210938	-177.3825836181641	-482.3370666503906	782.7526245117188	-158.9113159179688	-601.147705078125	1550.413696289062	-490.15576171875	-407.5289001464844	1576.275634765625	-518.9954223632812	-486.4156799316406	1574.088012695312	-425.8415832519531	-510.3863220214844	1548.731079101562	-622.812744140625	-434.266845703125	938.8194580078125	-693.3929443359375	-596.2305908203125	913.0062255859375	-372.9951171875	-454.9924011230469	925.439208984375	-360.3434448242188	-353.9712829589844	945.0660400390625	-602.84521484375	-241.5892791748047	488.7939453125	-574.396484375	-293.9671325683594	613.1815185546875	-616.5008544921875	-257.6725463867188	37.50717544555664	-634.4888305664062	-235.1986236572266	253.8216247558594	-608.9423828125	-149.3135223388672	45.93378067016602	-439.5687255859375	-227.5601043701172	42.6619873046875	-471.9741821289062	-158.9929351806641	37.45705795288086	-552.6373291015625	-323.6906433105469	36.06239318847656	-619.5902099609375	-556.541259765625	430.4448852539062	-445.4504089355469	-519.4609375	678.8905029296875	-372.5316467285156	-827.439208984375	120.6417388916016	-580.3383178710938	-610.3939208984375	317.6147155761719	-483.61279296875	-689.4369506835938	35.92968368530273	-635.5838012695312	-737.2789916992188	62.14915084838867	-664.2506713867188	-769.8447265625	58.04024887084961	-569.9892578125	-875.8951416015625	166.4210662841797	-642.5474243164062	-419.8063049316406	799.604736328125	-173.9806213378906	
